<svg width="238" height="48" fill="none" xmlns="http://www.w3.org/2000/svg"><path fill-rule="evenodd" clip-rule="evenodd" d="M191.3 35.1l22.6 12.5V13.4l-25.6-6.5 3 28.2zm1.6-1.3l-2.5-23.6 21.3 5.4.3 28.7-19.1-10.5z" fill="#000"/><path fill-rule="evenodd" clip-rule="evenodd" d="M197.3 29.9l-.8-15.1 13.2 3.6.6 22-15.9-7.5-1.8-19.1 2 .6 1.6 16.8 12 5.4-.4-16.6-9.2-2.7.5 11.2 5.5 2.2-.5-7.2-2-.8v2.9l-2 1.9-.3-7.6 6.3 2 .7 12.1-9.5-4.1zM217 13.4v34.2l18.4-14 2.4-28.3-20.8 8.1zm17.1 19l-15.4 11.7.2-28.6 17.2-6.8-2 23.7z" fill="#000"/><path fill-rule="evenodd" clip-rule="evenodd" d="M230.5 28.8l.7-15.1-10.7 4.4-.4 22 12.8-8.5 1.5-19.2-1.7.7-1.2 17-9.8 6.1.3-16.6 7.5-3.3-.4 11.2-4.5 2.6.4-7.3 1.7-.9v2.9l1.6 1.8.2-7.6-5 2.4-.6 12.1 7.6-4.7zM211.4 0l-21.7 4.6 25.8 6.4 21.1-7.2L211.4 0zm3.9 10l-21.7-5.4L211.8.8l20.7 3-17.2 6.2z" fill="#000"/><path fill-rule="evenodd" clip-rule="evenodd" d="M212.7 2.8l-11 2.7 13.2 3.2 14.4-4.5-16.9-2.8-14.5 3.1 2 .5 12.8-2.8L225 4.3l-10.5 3.5-9.3-2.2 8-2 4.8.8-4.1 1.7-2.2-.5 2-.6-.4-.9-5.4 1.4 6.5 1.4 7.7-2.5-9.4-1.6zM21.4 15.7c0 2.9-1.4 4.3-4.3 4.3H4.4v8.7H0V6.9h17.1c1.2 0 2.2.4 3.1 1.3.8.8 1.3 1.9 1.3 3.1v4.4h-.1zm-4.3 0v-4.4H4.4v4.4h12.7zm29.2 13H28.9c-1.3 0-2.3-.4-3.1-1.2-.8-.8-1.2-1.9-1.2-3.1V20c0-1.3.4-2.3 1.2-3.1.8-.8 1.9-1.2 3.1-1.2H42v-4.4H24.6V7H42c1.3 0 2.3.4 3.1 1.2.8.8 1.2 1.9 1.2 3.1v17.4zM42 24.4V20H28.9v4.4H42zm29.9 4.3h-4.4V11.3h-12v17.4h-4.3V6.9h16.3c2.9 0 4.4 1.4 4.4 4.3v17.5zm25.4 0h-17c-1.3 0-2.3-.4-3.1-1.2-.8-.8-1.2-1.8-1.2-3.1V11.2c0-1.2.4-2.2 1.3-3 .9-.8 1.9-1.2 3.1-1.2H93V.7h4.3v28zM93 24.4V11.3H80.3v13.1H93zm30.8-6.5c0 3.1-1.1 5.7-3.3 7.9-2.2 2.2-4.8 3.3-7.9 3.3-3.1 0-5.8-1.1-8-3.3-2.2-2.2-3.3-4.8-3.3-7.9 0-3.1 1.1-5.8 3.3-8 2.2-2.2 4.9-3.3 8-3.3 3.1 0 5.7 1.1 7.9 3.3 2.2 2.2 3.3 4.8 3.3 8zm-4.3 0c0-1.9-.7-3.5-2-4.9-1.3-1.4-3-2-4.9-2-1.9 0-3.5.7-4.9 2-1.4 1.4-2 3-2 4.9 0 1.9.7 3.5 2 4.9 1.4 1.4 3 2 4.9 2 1.9 0 3.5-.7 4.9-2 1.3-1.4 2-3.1 2-4.9zm27.8-2.2h-4.4v-4.4h-11.2v17.4h-4.3V6.9h15.5c2.9 0 4.4 1.4 4.4 4.3v4.5zm23.8 13h-17.4c-1.3 0-2.3-.4-3.1-1.2-.8-.8-1.2-1.9-1.2-3.1V20c0-1.3.4-2.3 1.2-3.1.8-.8 1.9-1.2 3.1-1.2h13.1v-4.4h-17.4V7h17.4c1.3 0 2.3.4 3.1 1.2.8.8 1.2 1.9 1.2 3.1v17.4zm-4.4-4.3V20h-13.1v4.4h13.1zM2.2 40.4h1l1.2-4.3v6h.9v-7.2H4l-1.2 4.3-1.2-4.3H0v7.2h1v-6l1.2 4.3zm9-.6l.9-3.6.9 3.6h-1.8zm1.9.7l.4 1.7h1.1L12.7 35h-1.3l-1.9 7.2h1.1l.4-1.7h2.1zm8.9-1.8c.5 0 1-.2 1-1.1v-1.5c0-.7-.3-1.2-1.1-1.2h-3.2v7.2h1v-3.3h1.4l1.2 3.3h1.1L22 38.7zm-.4-2.8c.2 0 .4.1.4.4v1.2c0 .3-.1.4-.4.4h-1.9v-2.1h1.9v.1zm8.1 2.9c.3 0 .4.1.5.5l1.2 2.9h1.2L31.3 39c-.1-.3-.3-.5-.6-.6.2-.1.5-.3.6-.5l1.2-2.9h-1.1l-1 2.5c-.1.3-.3.5-.5.5h-.8v-3h-1v7.2h1v-3.4h.6zm7.1-3.8v7.2h3.9v-.9h-2.9v-2.5H40v-.9h-2.2v-2.1h2.5c.1 0 .2 0 .3.1V35h-3.8zm10.4.9h1.6v-1h-4.3v1h1.6v6.3h1v-6.3h.1zm5.9-.9v7.2h1V35h-1zm9.1 7.1h1.1v-7.2h-.9v5.4l-2.3-5.4H59v7.2h.9v-5.4l2.3 5.4zM72.3 41v-3h-2.2v.9h1.2v2c0 .3-.1.4-.4.4h-1.5c-.2 0-.4-.1-.4-.4v-4.6c0-.3.1-.4.4-.4h2.2c.2 0 .3 0 .4.1v-1h-3c-.8 0-1.1.5-1.1 1.2v4.9c0 .7.3 1.2 1.1 1.2h2c1-.2 1.3-.6 1.3-1.3zM99 38v-1.8c0-.7-.3-1.2-1.1-1.2h-3.2v7.2h1v-3h2.2c.8-.1 1.1-.6 1.1-1.2zm-1-.2c0 .3-.1.4-.4.4h-1.9v-2.3h1.9c.2 0 .4.1.4.4v1.5zm9.7 3.2v-6h-1v5.9c0 .3-.1.4-.4.4h-1.5c-.2 0-.4-.1-.4-.4V35h-1v6c0 .7.3 1.2 1.1 1.2h2c.9-.1 1.2-.5 1.2-1.2zm9.1-3.8v-1.1c0-.7-.3-1.2-1.1-1.2h-3.1v7.2h3.1c.8 0 1.1-.5 1.1-1.2v-1.4c0-.7-.3-1.2-1.1-1.2.8.1 1.1-.4 1.1-1.1zm-1-1v1.3c0 .3-.1.5-.4.5h-1.9v-2.2h1.9c.2 0 .4.2.4.4zm-.4 5.1h-1.9v-2.5h1.9c.3 0 .4.2.4.5v1.6c0 .2-.2.4-.4.4zm7.1-6.3h-1v7.2h3.9v-.9h-2.9V35zm7 0v7.2h1V35h-1zm7.2.9h2.1c.2 0 .3 0 .4.1v-1h-2.8c-.8 0-1.1.5-1.1 1.2v4.9c0 .7.3 1.2 1.1 1.2h2.8v-1c-.1.1-.3.1-.4.1h-2.1c-.2 0-.4-.1-.4-.4v-4.7c0-.3.2-.4.4-.4zm6.8-.9v7.2h1V35h-1zm8.7 6.2h-1.9v-5.4h1.9c.2 0 .4.1.4.4v4.5c0 .4-.2.5-.4.5zm.3.9c.8 0 1.1-.5 1.1-1.2V36c0-.7-.3-1.2-1.1-1.2h-3.2V42h3.2v.1zm6.8-2.3l.9-3.6.9 3.6h-1.8zm1.9.7l.4 1.7h1.1l-1.9-7.2h-1.3l-1.9 7.2h1.1l.4-1.7h2.1zm8.5.7h-1.9v-5.4h1.9c.2 0 .4.1.4.4v4.5c0 .4-.1.5-.4.5zm.3.9c.8 0 1.1-.5 1.1-1.2V36c0-.7-.3-1.2-1.1-1.2h-3.2V42h3.2v.1zm-86.7-4.8c.3-.2.5-.4.6-.6.1-.2.2-.5.2-.7 0-.3-.1-.4-.2-.6-.1-.1-.3-.2-.5-.2s-.4.1-.5.2c-.1.1-.2.3-.2.6 0 .2.1.4.2.6.1.2.2.4.4.7zm1.4 3.5L83 38.3c-.4.2-.6.5-.8.8-.2.3-.3.6-.3.9 0 .4.1.8.4 1.1.3.3.6.4 1 .4.3 0 .5-.1.7-.2.4-.1.6-.3.7-.5zm1 1.3l-.5-.8c-.2.3-.5.5-.9.7-.3.2-.7.2-1.1.2-.6 0-1.1-.2-1.5-.6-.4-.4-.6-1-.6-1.6 0-.5.1-.9.4-1.3.2-.4.6-.7 1.2-1-.2-.3-.4-.6-.5-.9-.1-.3-.2-.6-.2-.8 0-.5.1-.8.4-1.1.3-.3.7-.4 1.1-.4.4 0 .8.1 1.1.4.3.3.4.6.4 1.1 0 .4-.1.7-.3 1-.2.3-.5.6-1 .9l1.5 2.2c.1-.2.1-.4.1-.6 0-.2.1-.5.1-.8h.8c0 .4-.1.8-.2 1.2-.1.4-.2.7-.4.9l1 1.5h-.9v-.2z" fill="#000"/></svg>